<svg width="78.000000" height="78.000000" viewBox="0 0 78 78" fill="none" xmlns="http://www.w3.org/2000/svg" xmlns:xlink="http://www.w3.org/1999/xlink">
	<desc>
			Created with Pixso.
	</desc>
	<defs>
		<clipPath id="clip53_30">
			<rect id="quality 1" rx="0.000000" width="60.000000" height="60.000000" transform="translate(9.500000 10.500000)" fill="white" fill-opacity="0"/>
		</clipPath>
		<clipPath id="clip53_32">
			<rect id="mdi-light:cog" rx="0.000000" width="77.000000" height="77.000000" transform="translate(0.500000 0.500000)" fill="white" fill-opacity="0"/>
		</clipPath>
		<clipPath id="clip53_38">
			<rect id="golf-ball 1" rx="0.000000" width="56.000000" height="56.000000" transform="translate(11.500000 13.500000)" fill="white" fill-opacity="0"/>
		</clipPath>
		<clipPath id="clip53_48">
			<rect id="hand 1" rx="0.000000" width="62.000000" height="62.000000" transform="translate(9.500000 8.500000)" fill="white" fill-opacity="0"/>
		</clipPath>
	</defs>
	<rect id="Frame 16" rx="0.000000" width="60.000000" height="60.000000" transform="translate(9.500000 10.500000)" fill="#FFFFFF" fill-opacity="0"/>
	<rect id="quality 1" rx="0.000000" width="60.000000" height="60.000000" transform="translate(9.500000 10.500000)" fill="#FFFFFF" fill-opacity="0"/>
	<g clip-path="url(#clip53_30)">
		<path id="Vector" d="M46.39 34.83L37.23 43.49L32.83 38.96C32.34 38.46 31.54 38.45 31.04 38.93C30.54 39.42 30.52 40.23 31.01 40.73L36.29 46.14C36.78 46.64 37.57 46.65 38.08 46.18L48.16 36.67C48.41 36.44 48.55 36.12 48.56 35.79C48.57 35.45 48.44 35.12 48.21 34.88C47.72 34.37 46.91 34.35 46.39 34.83Z" fill="#000000" fill-opacity="1.000000" fill-rule="nonzero"/>
		<path id="Vector" d="M39.59 21.51C29.12 21.51 20.6 30.02 20.6 40.5C20.6 50.97 29.12 59.49 39.59 59.49C50.07 59.49 58.59 50.97 58.59 40.5C58.59 30.02 50.07 21.51 39.59 21.51ZM39.59 56.95C30.52 56.95 23.14 49.56 23.14 40.5C23.14 31.43 30.52 24.05 39.59 24.05C48.68 24.05 56.04 31.41 56.04 40.5C56.04 49.58 48.68 56.95 39.59 56.95Z" fill="#000000" fill-opacity="1.000000" fill-rule="nonzero"/>
		<path id="Vector" d="M65.73 33.51L66.15 25.97C66.18 25.46 65.9 24.99 65.45 24.76L58.74 21.37L55.34 14.65C55.11 14.2 54.64 13.93 54.14 13.95L46.58 14.36L40.29 10.2C39.87 9.93 39.32 9.93 38.89 10.2L32.6 14.36L25.06 13.94C24.56 13.91 24.08 14.19 23.86 14.64L20.46 21.35L13.75 24.75C13.3 24.98 13.03 25.45 13.05 25.96L13.47 33.49L9.31 39.79C9.03 40.21 9.03 40.76 9.31 41.18L13.46 47.49L13.04 55.03C13.01 55.53 13.28 56.01 13.74 56.24L20.45 59.63L23.84 66.34C24.07 66.79 24.55 67.07 25.05 67.04L32.59 66.62L38.88 70.78C39.3 71.07 39.86 71.07 40.28 70.78L46.57 66.62L54.11 67.04C54.62 67.07 55.09 66.8 55.32 66.34L58.71 59.63L65.43 56.24C65.87 56.01 66.15 55.53 66.12 55.03L65.7 47.49L69.86 41.2C70.14 40.77 70.14 40.22 69.86 39.8L65.73 33.51ZM63.37 46.45C63.21 46.68 63.14 46.95 63.16 47.22L63.56 54.35L57.21 57.56C56.97 57.68 56.77 57.88 56.65 58.12L53.45 64.46L46.32 64.07C46.05 64.06 45.78 64.13 45.54 64.27L39.59 68.2L33.64 64.27C33.44 64.13 33.19 64.06 32.95 64.05L32.88 64.05L25.75 64.45L22.55 58.1C22.43 57.86 22.23 57.67 21.99 57.55L15.63 54.35L16.02 47.22C16.03 46.95 15.96 46.68 15.82 46.45L11.89 40.5L15.82 34.55C15.98 34.32 16.05 34.05 16.02 33.77L15.63 26.64L21.97 23.44C22.22 23.32 22.41 23.12 22.53 22.88L25.74 16.54L32.87 16.93C33.14 16.94 33.41 16.87 33.64 16.73L39.59 12.8L45.54 16.73C45.77 16.88 46.04 16.95 46.32 16.93L53.45 16.54L56.65 22.88C56.77 23.12 56.97 23.32 57.21 23.44L63.56 26.64L63.16 33.77C63.15 34.05 63.22 34.32 63.37 34.55L67.29 40.5L63.37 46.45Z" fill="#000000" fill-opacity="1.000000" fill-rule="nonzero"/>
	</g>
</svg>
