<svg width="78.000000" height="78.000000" viewBox="0 0 78 78" fill="none" xmlns="http://www.w3.org/2000/svg" xmlns:xlink="http://www.w3.org/1999/xlink">
	<desc>
			Created with Pixso.
	</desc>
	<defs>
		<clipPath id="clip53_56">
			<rect id="quality 1" rx="0.000000" width="60.000000" height="60.000000" transform="translate(9.500000 10.500000)" fill="white" fill-opacity="0"/>
		</clipPath>
		<clipPath id="clip53_58">
			<rect id="mdi-light:cog" rx="0.000000" width="77.000000" height="77.000000" transform="translate(0.500000 0.500000)" fill="white" fill-opacity="0"/>
		</clipPath>
		<clipPath id="clip53_64">
			<rect id="golf-ball 1" rx="0.000000" width="56.000000" height="56.000000" transform="translate(11.500000 13.500000)" fill="white" fill-opacity="0"/>
		</clipPath>
		<clipPath id="clip53_74">
			<rect id="hand 1" rx="0.000000" width="62.000000" height="62.000000" transform="translate(9.500000 8.500000)" fill="white" fill-opacity="0"/>
		</clipPath>
	</defs>
	<rect id="Frame 16" rx="0.000000" width="60.000000" height="60.000000" transform="translate(9.500000 10.500000)" fill="#FFFFFF" fill-opacity="0"/>
	<rect id="mdi-light:cog" rx="0.000000" width="77.000000" height="77.000000" transform="translate(0.500000 0.500000)" fill="#FFFFFF" fill-opacity="0"/>
	<g clip-path="url(#clip53_58)">
		<path id="Vector" d="M63.66 50.34L57.76 46.15C58.75 42.51 58.75 38.67 57.74 35.03L63.66 30.89L58.94 22.72L52.36 25.73C49.7 23.05 46.37 21.14 42.72 20.19L42.09 13L32.65 13L32.02 20.19C28.37 21.14 25.04 23.06 22.38 25.74L15.8 22.73L11.08 30.9L17 35.04C16 38.67 15.99 42.51 16.98 46.15L11.08 50.34L15.8 58.48L22.38 55.46C25.04 58.14 28.37 60.06 32.02 61.01L32.65 68.2L42.09 68.2L42.72 61.01C46.37 60.05 49.7 58.14 52.36 55.46L58.94 58.48L63.66 50.35L63.66 50.34ZM43.89 9.7C44.3 9.7 44.71 9.86 45.01 10.15C45.31 10.43 45.49 10.83 45.51 11.25L46.09 17.86C48.49 18.78 50.73 20.07 52.73 21.69L58.74 18.88C59.11 18.69 59.54 18.65 59.94 18.77C60.35 18.89 60.68 19.16 60.89 19.52L67.41 30.8C67.62 31.16 67.68 31.58 67.58 31.99C67.49 32.4 67.23 32.75 66.88 32.98L61.44 36.79C61.86 39.38 61.85 41.96 61.45 44.45L66.88 48.25C67.24 48.48 67.49 48.83 67.58 49.24C67.68 49.65 67.62 50.08 67.41 50.44L60.89 61.67C60.68 62.04 60.35 62.3 59.94 62.42C59.54 62.54 59.11 62.5 58.74 62.31L52.73 59.5C50.77 61.09 48.54 62.39 46.09 63.33L45.51 69.95C45.49 70.37 45.31 70.76 45.01 71.05C44.71 71.33 44.3 71.5 43.89 71.5L30.85 71.5C30.44 71.5 30.03 71.33 29.73 71.05C29.43 70.76 29.25 70.37 29.23 69.95L28.65 63.33C26.25 62.42 24.01 61.12 22.01 59.5L16 62.31C15.63 62.5 15.2 62.54 14.79 62.42C14.39 62.31 14.05 62.04 13.84 61.68L7.33 50.43C7.12 50.07 7.06 49.65 7.16 49.24C7.25 48.83 7.51 48.48 7.86 48.25L13.29 44.45C12.89 41.91 12.89 39.32 13.29 36.78L7.86 32.98C7.51 32.75 7.26 32.4 7.16 31.99C7.06 31.59 7.13 31.16 7.33 30.8L13.84 19.52C14.05 19.15 14.39 18.89 14.79 18.77C15.19 18.65 15.62 18.69 15.99 18.88L22.01 21.69C24 20.07 26.24 18.78 28.65 17.86L29.23 11.25C29.24 10.83 29.42 10.43 29.73 10.15C30.03 9.86 30.43 9.7 30.85 9.7L43.88 9.7L43.89 9.7ZM37.37 29.25C40.39 29.25 43.28 30.44 45.41 32.58C47.55 34.71 48.75 37.6 48.75 40.62C48.75 43.64 47.55 46.53 45.41 48.66C43.28 50.8 40.39 52 37.37 52C34.35 52 31.46 50.8 29.33 48.66C27.19 46.53 26 43.64 26 40.62C26 37.6 27.19 34.71 29.33 32.58C31.46 30.44 34.35 29.25 37.37 29.25ZM37.37 32.5C35.22 32.5 33.15 33.35 31.62 34.87C30.1 36.4 29.25 38.47 29.25 40.62C29.25 42.77 30.1 44.84 31.62 46.37C33.15 47.89 35.22 48.75 37.37 48.75C39.53 48.75 41.59 47.89 43.12 46.37C44.64 44.84 45.5 42.77 45.5 40.62C45.5 38.47 44.64 36.4 43.12 34.87C41.59 33.35 39.53 32.5 37.37 32.5Z" fill="#000000" fill-opacity="1.000000" fill-rule="nonzero"/>
	</g>
</svg>
