<svg width="78.000000" height="78.000000" viewBox="0 0 78 78" fill="none" xmlns="http://www.w3.org/2000/svg" xmlns:xlink="http://www.w3.org/1999/xlink">
	<desc>
			Created with Pixso.
	</desc>
	<defs>
		<clipPath id="clip53_82">
			<rect id="quality 1" rx="0.000000" width="60.000000" height="60.000000" transform="translate(9.500000 10.500000)" fill="white" fill-opacity="0"/>
		</clipPath>
		<clipPath id="clip53_84">
			<rect id="mdi-light:cog" rx="0.000000" width="77.000000" height="77.000000" transform="translate(0.500000 0.500000)" fill="white" fill-opacity="0"/>
		</clipPath>
		<clipPath id="clip53_90">
			<rect id="golf-ball 1" rx="0.000000" width="56.000000" height="56.000000" transform="translate(11.500000 13.500000)" fill="white" fill-opacity="0"/>
		</clipPath>
		<clipPath id="clip53_100">
			<rect id="hand 1" rx="0.000000" width="62.000000" height="62.000000" transform="translate(9.500000 8.500000)" fill="white" fill-opacity="0"/>
		</clipPath>
	</defs>
	<rect id="Frame 16" rx="0.000000" width="60.000000" height="60.000000" transform="translate(9.500000 10.500000)" fill="#FFFFFF" fill-opacity="0"/>
	<rect id="hand 1" rx="0.000000" width="62.000000" height="62.000000" transform="translate(9.500000 8.500000)" fill="#FFFFFF" fill-opacity="0"/>
	<g clip-path="url(#clip53_100)">
		<path id="Vector" d="M33.77 51.79C33.44 51.79 33.1 51.66 32.84 51.4L15.21 33.77C13.16 31.72 13.16 28.39 15.21 26.34C17.26 24.29 20.59 24.3 22.63 26.34L38.41 42.12C38.93 42.63 38.93 43.46 38.41 43.98C37.9 44.49 37.07 44.49 36.56 43.98L20.78 28.2C19.76 27.18 18.1 27.18 17.07 28.2C16.57 28.69 16.3 29.35 16.3 30.05C16.3 30.76 16.57 31.42 17.07 31.91L34.7 49.54C35.21 50.06 35.21 50.89 34.7 51.4C34.44 51.66 34.11 51.79 33.77 51.79Z" fill="#000000" fill-opacity="1.000000" fill-rule="nonzero"/>
		<path id="Vector" d="M43.05 38.79C42.72 38.79 42.38 38.66 42.13 38.41L24.49 20.77C23.47 19.75 21.8 19.75 20.78 20.77C20.29 21.27 20.01 21.93 20.01 22.63C20.01 23.33 20.28 23.99 20.78 24.49L22.63 26.34C23.15 26.85 23.15 27.68 22.63 28.2C22.12 28.71 21.29 28.71 20.78 28.2L18.92 26.34C17.93 25.35 17.38 24.03 17.38 22.63C17.38 21.23 17.93 19.91 18.92 18.92C20.9 16.94 24.36 16.93 26.35 18.92L43.98 36.55C44.49 37.06 44.49 37.9 43.98 38.41C43.72 38.67 43.39 38.79 43.05 38.79Z" fill="#000000" fill-opacity="1.000000" fill-rule="nonzero"/>
		<path id="Vector" d="M48.62 33.22C48.29 33.22 47.95 33.1 47.7 32.84L33.77 18.92C32.75 17.89 31.09 17.89 30.06 18.92C29.04 19.94 29.04 21.61 30.06 22.63C30.57 23.14 30.57 23.97 30.06 24.49C29.55 25 28.72 25 28.2 24.49C26.16 22.44 26.16 19.11 28.2 17.06C30.25 15.02 33.58 15.02 35.63 17.06L49.55 30.98C50.06 31.5 50.06 32.33 49.55 32.84C49.3 33.1 48.96 33.22 48.62 33.22Z" fill="#000000" fill-opacity="1.000000" fill-rule="nonzero"/>
		<path id="Vector" d="M47.19 67.46C46.31 67.46 45.41 67.36 44.52 67.16L22.42 62.09C21.47 61.89 20.58 61.41 19.85 60.68C18.86 59.69 18.31 58.37 18.31 56.97C18.31 55.57 18.86 54.25 19.85 53.26C20.53 52.58 21.36 52.11 22.26 51.89C22.29 51.88 22.31 51.87 22.34 51.86L33.47 49.19C34.17 49.02 34.88 49.46 35.05 50.17C35.22 50.87 34.78 51.58 34.08 51.75L23.03 54.4C22.99 54.41 22.96 54.42 22.92 54.43C22.48 54.53 22.06 54.76 21.71 55.12C21.21 55.61 20.94 56.27 20.94 56.97C20.94 57.67 21.21 58.33 21.71 58.83C22.06 59.18 22.49 59.42 22.93 59.52C22.94 59.52 22.96 59.53 22.98 59.53L45.11 64.61C48.22 65.32 51.41 64.4 53.66 62.15L64.4 51.4C66.14 49.67 67.09 47.36 67.09 44.91C67.09 42.45 66.14 40.15 64.4 38.41L41.2 15.21C40.17 14.18 38.52 14.18 37.49 15.21C36.47 16.23 36.47 17.89 37.49 18.92C38 19.43 38 20.26 37.49 20.77C36.98 21.29 36.15 21.29 35.63 20.77C33.59 18.73 33.59 15.39 35.63 13.35C37.68 11.31 41.01 11.31 43.06 13.35L66.26 36.55C68.49 38.78 69.72 41.75 69.72 44.91C69.72 48.06 68.49 51.03 66.26 53.26L55.52 64C53.27 66.25 50.28 67.46 47.19 67.46Z" fill="#000000" fill-opacity="1.000000" fill-rule="nonzero"/>
	</g>
</svg>
