<svg width="22.000000" height="22.000000" viewBox="0 0 22 22" fill="none" xmlns="http://www.w3.org/2000/svg" xmlns:xlink="http://www.w3.org/1999/xlink">
	<desc>
			Created with Pixso.
	</desc>
	<defs>
		<clipPath id="clip2_226">
			<rect id="instagram (1) 1" rx="0.000000" width="21.000000" height="21.000000" transform="translate(0.500000 0.500000)" fill="white" fill-opacity="0"/>
		</clipPath>
	</defs>
	<rect id="instagram (1) 1" rx="0.000000" width="21.000000" height="21.000000" transform="translate(0.500000 0.500000)" fill="#FFFFFF" fill-opacity="0"/>
	<g clip-path="url(#clip2_226)">
		<path id="Vector" d="M15.6 0L6.39 0C2.86 0 0 2.86 0 6.39L0 15.6C0 19.13 2.86 22 6.39 22L15.6 22C19.13 22 22 19.13 22 15.6L22 6.39C22 2.86 19.13 0 15.6 0ZM20.28 15.6C20.28 18.18 18.18 20.28 15.6 20.28L6.39 20.28C3.81 20.28 1.71 18.18 1.71 15.6L1.71 6.39C1.71 3.81 3.81 1.71 6.39 1.71L15.6 1.71C18.18 1.71 20.28 3.81 20.28 6.39L20.28 15.6Z" fill="#000000" fill-opacity="1.000000" fill-rule="nonzero"/>
		<path id="Vector" d="M11 5.07C7.73 5.07 5.07 7.73 5.07 11C5.07 14.26 7.73 16.92 11 16.92C14.26 16.92 16.92 14.26 16.92 11C16.92 7.73 14.26 5.07 11 5.07ZM11 15.21C8.67 15.21 6.78 13.32 6.78 11C6.78 8.67 8.67 6.78 11 6.78C13.32 6.78 15.21 8.67 15.21 11C15.21 13.32 13.32 15.21 11 15.21Z" fill="#000000" fill-opacity="1.000000" fill-rule="nonzero"/>
		<path id="Vector" d="M17.87 4.98C17.87 5.45 17.49 5.84 17.01 5.84C16.54 5.84 16.15 5.45 16.15 4.98C16.15 4.5 16.54 4.12 17.01 4.12C17.49 4.12 17.87 4.5 17.87 4.98Z" fill="#000000" fill-opacity="1.000000" fill-rule="evenodd"/>
	</g>
</svg>
