<svg width="23.000000" height="23.000000" viewBox="0 0 23 23" fill="none" xmlns="http://www.w3.org/2000/svg" xmlns:xlink="http://www.w3.org/1999/xlink">
	<desc>
			Created with Pixso.
	</desc>
	<defs>
		<clipPath id="clip2_238">
			<rect id="twitter (1) 1" rx="0.000000" width="22.000000" height="22.000000" transform="translate(0.500000 0.500000)" fill="white" fill-opacity="0"/>
		</clipPath>
	</defs>
	<rect id="twitter (1) 1" rx="0.000000" width="22.000000" height="22.000000" transform="translate(0.500000 0.500000)" fill="#FFFFFF" fill-opacity="0"/>
	<g clip-path="url(#clip2_238)">
		<path id="Vector" d="M20.27 5.16L20.25 5.12C21.23 4.53 22.02 3.57 22.37 2.47C21.45 3.01 20.39 3.42 19.31 3.63C18.45 2.72 17.3 2.15 15.94 2.15C13.34 2.15 11.18 4.26 11.18 6.87C11.18 7.24 11.23 7.6 11.32 7.95L11.32 7.99C7.43 7.77 3.92 5.8 1.61 2.96C1.21 3.66 0.98 4.65 0.98 5.52C0.98 6.87 1.78 8.67 3.05 9.52L3.05 9.61C2.29 9.58 1.52 9.06 0.89 8.71C0.89 8.73 0.92 8.76 0.92 8.78C0.92 11.06 2.6 13.04 4.76 13.47C4.38 13.57 3.85 13.65 3.45 13.65C3.15 13.65 2.84 13.57 2.56 13.52C3.16 15.39 4.89 16.62 6.96 16.62L6.96 16.66C5.35 17.91 3.31 18.77 1.12 18.77C0.74 18.77 0.26 18.73 0 18.68C2.08 20.02 4.56 20.84 7.23 20.84C15.91 20.84 20.66 13.7 20.66 7.45L20.66 6.82C21.58 6.16 22.36 5.26 23 4.31C23 4.31 21.34 5.09 20.27 5.16ZM18.86 7.45C18.86 8.8 18.6 10.22 18.1 11.55C17.57 12.94 16.82 14.21 15.85 15.3C14.34 17 11.61 19.04 7.23 19.04C7.1 19.04 6.97 19.04 6.84 19.04C7.26 18.79 7.67 18.52 8.06 18.22L8.75 17.68L8.75 16.8L8.75 16.62L8.75 14.82L8.01 14.81C7.2 14.8 6.55 14.14 6.55 13.33L6.55 11.86L5.58 11.65C5.15 11.55 4.85 11.17 4.85 10.73L4.85 9.61L4.85 9.47L4.82 8.56L4.03 8.02C3.68 7.73 3.37 7.32 3.14 6.87C5.5 8.59 8.3 9.62 11.21 9.79L13.11 9.89L13.11 7.99L13.11 7.95L13.11 7.73L13.06 7.53C13.01 7.29 12.98 7.07 12.98 6.87C12.98 6.09 13.29 5.36 13.85 4.81C14.41 4.25 15.15 3.95 15.94 3.95C16.74 3.95 17.43 4.26 18 4.86L18.46 5.35L18.52 5.57L18.53 5.61L18.86 6.91L18.86 7.45Z" fill="#000000" fill-opacity="1.000000" fill-rule="nonzero"/>
	</g>
</svg>
